<?xml version="1.0" standalone="no"?>
<!DOCTYPE svg PUBLIC "-//W3C//DTD SVG 20010904//EN"
 "http://www.w3.org/TR/2001/REC-SVG-20010904/DTD/svg10.dtd">
<svg version="1.0" xmlns="http://www.w3.org/2000/svg"
 width="48.000000pt" height="48.000000pt" viewBox="0 0 48.000000 48.000000"
 preserveAspectRatio="xMidYMid meet">

<g transform="translate(0.000000,48.000000) scale(0.100000,-0.100000)"
fill="#000000" stroke="none">
<path d="M43 438 c-21 -26 -43 -78 -43 -101 0 -13 9 -32 20 -42 17 -15 20 -33
22 -139 l3 -121 195 0 195 0 3 121 c2 106 5 124 22 139 26 24 25 61 -3 110
l-23 40 -190 3 c-145 2 -194 -1 -201 -10z m68 -35 c-6 -23 -14 -29 -44 -31
-41 -4 -42 -3 -25 33 9 19 19 25 44 25 30 0 32 -2 25 -27z m119 -3 c0 -30 -1
-30 -55 -30 -44 0 -53 3 -50 15 3 8 7 22 10 30 3 10 18 15 50 15 43 0 45 -1
45 -30z m121 -2 l7 -28 -54 0 c-54 0 -54 0 -54 31 0 30 1 30 47 27 41 -3 47
-6 54 -30z m87 7 c17 -36 16 -37 -25 -33 -30 2 -38 8 -44 31 -7 25 -5 27 25
27 25 0 35 -6 44 -25z m-340 -82 c-4 -33 -37 -43 -62 -18 -29 29 -20 45 25 45
38 0 40 -1 37 -27z m132 -1 c0 -35 -16 -52 -49 -52 -32 0 -61 27 -61 57 0 21
4 23 55 23 54 0 55 -1 55 -28z m130 6 c0 -30 -28 -58 -60 -58 -34 0 -50 17
-50 52 0 27 1 28 55 28 50 0 55 -2 55 -22z m100 8 c0 -23 -30 -47 -54 -44 -15
2 -22 11 -24 31 -3 26 -1 27 37 27 29 0 41 -4 41 -14z m-325 -72 c17 -11 35
-14 57 -10 18 4 40 7 48 7 8 0 30 -3 48 -7 22 -4 40 -1 57 10 16 10 34 14 50
10 25 -6 25 -7 25 -115 0 -131 -18 -148 -22 -21 l-3 87 -55 0 -55 0 -3 -87 -3
-88 -109 0 -110 0 0 109 c0 96 2 110 18 114 29 8 32 7 57 -9z m245 -134 l0
-80 -40 0 -40 0 0 80 0 80 40 0 40 0 0 -80z"/>
<path d="M80 160 l0 -70 90 0 90 0 0 70 0 70 -90 0 -90 0 0 -70z m160 0 l0
-50 -70 0 -70 0 0 50 0 50 70 0 70 0 0 -50z"/>
</g>
</svg>
