<?xml version="1.0" standalone="no"?>
<!DOCTYPE svg PUBLIC "-//W3C//DTD SVG 20010904//EN"
 "http://www.w3.org/TR/2001/REC-SVG-20010904/DTD/svg10.dtd">
<svg version="1.0" xmlns="http://www.w3.org/2000/svg"
 width="48.000000pt" height="48.000000pt" viewBox="0 0 48.000000 48.000000"
 preserveAspectRatio="xMidYMid meet">

<g transform="translate(0.000000,48.000000) scale(0.100000,-0.100000)"
fill="#000000" stroke="none">
<path d="M150 470 c0 -5 17 -10 37 -10 l38 0 -85 -85 c-46 -46 -81 -88 -77
-92 4 -4 46 31 92 77 l85 85 0 -38 c0 -20 5 -37 10 -37 6 0 10 25 10 55 l0 55
-55 0 c-30 0 -55 -4 -55 -10z"/>
<path d="M367 454 c-4 -4 -7 -103 -7 -221 0 -205 -1 -213 -20 -213 -18 0 -20
8 -22 153 l-3 152 -55 0 -55 0 -3 -67 c-2 -43 1 -68 8 -68 6 0 10 25 10 60 l0
60 40 0 40 0 0 -145 0 -145 -35 0 -34 0 -3 68 -3 67 -42 3 -43 3 0 55 c0 30
-4 54 -10 54 -5 0 -10 -7 -10 -15 0 -10 -15 -15 -58 -17 l-57 -3 -3 -118 -3
-117 241 0 240 0 -2 228 -3 227 -50 3 c-28 2 -54 0 -58 -4z m93 -224 l0 -210
-40 0 -40 0 0 210 0 210 40 0 40 0 0 -210z m-340 -110 l0 -100 -50 0 -50 0 0
50 c0 47 2 50 25 50 14 0 25 5 25 10 0 6 -11 10 -25 10 -14 0 -25 5 -25 10 0
6 11 10 25 10 14 0 25 5 25 10 0 6 -11 10 -25 10 -18 0 -25 5 -25 20 0 17 7
20 50 20 l50 0 0 -100z m90 -40 l0 -60 -35 0 c-28 0 -35 4 -35 20 0 13 7 20
20 20 11 0 20 5 20 10 0 6 -9 10 -20 10 -11 0 -20 5 -20 10 0 6 9 10 20 10 11
0 20 5 20 10 0 6 -9 10 -20 10 -11 0 -20 5 -20 10 0 6 16 10 35 10 l35 0 0
-60z"/>
</g>
</svg>
